<?xml version="1.0" encoding="UTF-8"?>
<svg width="25px" height="25px" viewBox="0 0 25 25" version="1.1" xmlns="http://www.w3.org/2000/svg" xmlns:xlink="http://www.w3.org/1999/xlink">
    <!-- Generator: Sketch 48.2 (47327) - http://www.bohemiancoding.com/sketch -->
    <title>Page 1</title>
    <desc>Created with Sketch.</desc>
    <defs></defs>
    <g id="6" stroke="none" stroke-width="1" fill="none" fill-rule="evenodd" transform="translate(-624.000000, -696.000000)" opacity="0.400000006">
        <g id="Page-1" transform="translate(624.000000, 696.000000)" fill="#D2D3D6">
            <path d="M23.6202387,0 L1.37976125,0 C0.617660944,0 0,0.61765863 0,1.37975608 L0,23.6201502 C0,24.382154 0.617660944,25 1.37976125,25 L13.353335,25 L13.353335,15.3186646 L10.0953,15.3186646 L10.0953,11.5456453 L13.353335,11.5456453 L13.353335,8.76318402 C13.353335,5.53419884 15.3254663,3.77592312 18.2060106,3.77592312 C19.5858655,3.77592312 20.7717296,3.87858521 21.1172788,3.92448341 L21.1172788,7.29903145 L19.1194819,7.29996815 C17.5529424,7.29996815 17.2495448,8.04436202 17.2495448,9.13673917 L17.2495448,11.5456453 L20.9857659,11.5456453 L20.4993368,15.3186646 L17.2495448,15.3186646 L17.2495448,25 L23.6202387,25 C24.3822454,25 25,24.382154 25,23.6201502 L25,1.37975608 C25,0.61765863 24.3822454,0 23.6202387,0" id="Fill-1"></path>
        </g>
    </g>
</svg>