<?xml version="1.0" encoding="UTF-8"?>
<svg width="37px" height="38px" viewBox="0 0 37 38" version="1.1" xmlns="http://www.w3.org/2000/svg" xmlns:xlink="http://www.w3.org/1999/xlink">
    <!-- Generator: Sketch 48.2 (47327) - http://www.bohemiancoding.com/sketch -->
    <title>noun_911442_cc</title>
    <desc>Created with Sketch.</desc>
    <defs></defs>
    <g id="1" stroke="none" stroke-width="1" fill="none" fill-rule="evenodd" transform="translate(-72.000000, -781.000000)">
        <g id="noun_911442_cc" transform="translate(72.000000, 781.000000)" fill="#FFFF7B" fill-rule="nonzero">
            <g id="Group">
                <g id="Shape">
                    <path d="M3.36363636,15.5859478 L10.0909091,19.5511652 L16.8181818,15.5859478 L16.8181818,7.54481739 L10.0909091,3.57794783 L3.36363636,7.54481739 L3.36363636,15.5859478 Z M10.0909091,23.1297739 C9.79154545,23.1297739 9.49218182,23.0521217 9.22477273,22.8951652 L0.815681818,17.9386435 C0.311136364,17.6396 0,17.1009913 0,16.5210783 L0,6.60803478 C0,6.02812174 0.311136364,5.49116522 0.815681818,5.19212174 L9.22477273,0.2356 C9.75790909,-0.0783130435 10.4239091,-0.0783130435 10.9570455,0.2356 L19.3661364,5.19212174 C19.8706818,5.49116522 20.1818182,6.02812174 20.1818182,6.60803478 L20.1818182,16.5210783 C20.1818182,17.1009913 19.8706818,17.6396 19.3661364,17.9386435 L10.9570455,22.8951652 C10.6896364,23.0521217 10.3902727,23.1297739 10.0909091,23.1297739 Z"></path>
                    <path d="M26.9074091,15.6819391 L24.5242727,18.2758522 C23.2259091,19.7000261 23.2259091,22.1138522 24.5276364,23.5413304 L24.7496364,23.7825478 C25.9252273,25.0728957 27.8929545,25.0728957 29.0685455,23.7825478 L29.2888636,23.5413304 L29.2905455,23.5413304 C30.5922727,22.1138522 30.5922727,19.7000261 29.2905455,18.2708957 L26.9074091,15.6819391 Z M26.9090909,28.0864609 C25.1347727,28.0864609 23.4781818,27.3413304 22.2437273,25.9865478 L22.0234091,25.7469826 C19.5460909,23.0324609 19.5460909,18.7797652 22.0250909,16.0652435 L25.6595,12.1099391 C26.2969091,11.4176783 27.5179091,11.4143739 28.1553182,12.1099391 L31.7897273,16.060287 C34.2720909,18.7797652 34.2720909,23.0324609 31.7930909,25.7469826 L31.5744545,25.9882 C30.34,27.3413304 28.6834091,28.0864609 26.9090909,28.0864609 Z"></path>
                    <path d="M31.52585,20.4101304 C30.9540318,20.4101304 30.39735,20.1243043 30.08285,19.6088261 C29.6035318,18.8256957 29.8625318,17.8112609 30.6580318,17.3420435 L33.6365318,15.5857826 L33.6365318,7.54465217 L26.9092591,3.57778261 L20.1819864,7.54465217 L20.1819864,15.5857826 L23.1588045,17.3420435 C23.9559864,17.8112609 24.2133045,18.8256957 23.7356682,19.6088261 C23.2580318,20.3903043 22.2270773,20.6463913 21.4282136,20.1738696 L17.6340318,17.9384783 C17.1278045,17.6394348 16.81835,17.1024783 16.81835,16.520913 L16.81835,6.60786957 C16.81835,6.02795652 17.1278045,5.491 17.6340318,5.19195652 L26.0431227,0.235434783 C26.5762591,-0.0784782609 27.2422591,-0.0784782609 27.7753955,0.235434783 L36.1844864,5.19195652 C36.6890318,5.491 37.0001682,6.02795652 37.0001682,6.60786957 L37.0001682,16.520913 C37.0001682,17.1024783 36.6890318,17.6394348 36.1844864,17.9384783 L32.3903045,20.1738696 C32.1195318,20.3341304 31.8201682,20.4101304 31.52585,20.4101304"></path>
                    <path d="M18.5,38 C18.2006364,38 17.9012727,37.9223478 17.6338636,37.7637391 L9.22477273,32.8072174 C8.72022727,32.5098261 8.40909091,31.9712174 8.40909091,31.3913043 L8.40909091,21.4782609 C8.40909091,20.8983478 8.72022727,20.3597391 9.22477273,20.0623478 L17.6338636,15.1058261 C18.167,14.7902609 18.833,14.7902609 19.3661364,15.1058261 L23.1603182,17.3412174 C23.9558182,17.8104348 24.2131364,18.8265217 23.7355,19.608 C23.2578636,20.3911304 22.2269091,20.6455652 21.4280455,20.1746957 L18.5,18.4481739 L11.7727273,22.4133913 L11.7727273,30.4561739 L18.5,34.4213913 L25.2272727,30.4561739 L25.2272727,26.4347826 C25.2272727,25.5227826 25.9790455,24.7826087 26.9090909,24.7826087 C27.8391364,24.7826087 28.5909091,25.5227826 28.5909091,26.4347826 L28.5909091,31.3913043 C28.5909091,31.9712174 28.2797727,32.5098261 27.7752273,32.8072174 L19.3661364,37.7637391 C19.0987273,37.9223478 18.7993636,38 18.5,38"></path>
                </g>
            </g>
        </g>
    </g>
</svg>