<?xml version="1.0" encoding="UTF-8"?>
<svg width="247px" height="51px" viewBox="0 0 247 51" version="1.1" xmlns="http://www.w3.org/2000/svg" xmlns:xlink="http://www.w3.org/1999/xlink">
    <!-- Generator: Sketch 48.2 (47327) - http://www.bohemiancoding.com/sketch -->
    <title>logo_ZDOROV</title>
    <desc>Created with Sketch.</desc>
    <defs></defs>
    <g id="1" stroke="none" stroke-width="1" fill="none" fill-rule="evenodd" transform="translate(-72.000000, -45.000000)">
        <g id="logo_ZDOROV" transform="translate(72.000000, 45.000000)" fill="#FFFFFF">
            <g id="Group">
                <path d="M53.2664127,32.0095143 C54.4774813,29.6190079 55,27.2288542 55,25.5956501 C55,25.5842163 54.9904045,25.5606434 54.9930215,25.5483867 C54.9930215,25.5305453 55,25.515555 55,25.4997712 C55,23.8617467 54.4713751,21.4814689 53.2501294,19.0953714 C52.2056736,17.0582531 50.8591049,15.8327549 50.0667491,16.1330011 C49.274684,16.4369213 49.1990831,18.9272747 49.2031539,20.2286355 C49.2031539,21.5358454 49.1816367,25.5541182 49.1816367,25.5541182 C49.1816367,25.5541182 49.2112955,29.5696282 49.2112955,30.8814233 C49.2144941,32.1858703 49.2921304,34.6768997 50.0879755,34.9764111 C50.8803313,35.2770982 52.2303893,34.0484843 53.2664127,32.0095143" id="Fill-11"></path>
                <path d="M34.7144866,50.9857322 C37.4099002,50.85432 39.7470459,50.1083709 41.1621307,49.2882995 C41.1771691,49.2785543 41.1892588,49.2702857 41.2016434,49.2640842 C41.2202203,49.2522719 41.23231,49.2490235 41.2500022,49.2354393 C42.6751126,48.4153678 44.4755935,46.7560299 45.9266526,44.4821552 C47.1654046,42.5452274 47.5487366,40.7397118 46.8805595,40.1975256 C46.2168054,39.6464801 44.0229669,40.8348011 42.8903683,41.4936341 C41.7527569,42.1506953 38.2496922,44.1534769 38.2496922,44.1534769 C38.2496922,44.1534769 34.7713966,46.2014407 33.6382083,46.8590926 C32.5032507,47.517335 30.3857837,48.8317527 30.5255525,49.6837174 C30.6688597,50.537454 32.4183279,51.0979494 34.7144866,50.9857322" id="Fill-12"></path>
                <path d="M9.07435361,44.4848855 C10.527886,46.7584808 12.3324194,48.4209993 13.7557926,49.2397063 C13.7678504,49.2485667 13.7835638,49.2541784 13.7984811,49.2612667 C13.8138702,49.2689458 13.8264881,49.2828272 13.8412876,49.2890295 C15.2556986,50.1127574 17.5959907,50.8561504 20.2846599,50.9855132 C22.5850641,51.0992225 24.3309303,50.5321527 24.4739133,49.6847969 C24.6195495,48.8336016 22.4969159,47.5151645 21.3616017,46.8559459 C20.2265823,46.2026343 16.7498853,44.1555715 16.7498853,44.1555715 C16.7498853,44.1555715 13.2512544,42.1507437 12.1135523,41.4924111 C10.981481,40.8337833 8.78535114,39.6479577 8.11899158,40.1967158 C7.45254358,40.7428158 7.83243604,42.5459204 9.07435361,44.4848855" id="Fill-13"></path>
                <path d="M1.74086872,18.9875186 C0.525294969,21.3749407 0,23.7643318 0,25.3929492 C0,25.4087319 0.00238558858,25.4294228 0.00238558858,25.443736 C0.00238558858,25.463751 0,25.4780642 0,25.4930533 C0,27.1289889 0.522123881,29.5156174 1.74086872,31.9071247 C2.78261453,33.9412432 4.13332314,35.1697672 4.92350572,34.8661631 C5.7191577,34.5625589 5.79389644,32.0787654 5.79389644,30.7708869 C5.79389644,29.4662413 5.81836327,25.4479683 5.81836327,25.4479683 C5.81836327,25.4479683 5.79060899,21.4264329 5.79389644,20.1185543 C5.79389644,18.8112049 5.7191577,16.3243547 4.92350572,16.0236602 C4.13332314,15.7226424 2.78261453,16.9520482 1.74086872,18.9875186" id="Fill-14"></path>
                <path d="M20.3777561,0.011817501 C17.6713172,0.140858868 15.3238703,0.867380246 13.8959904,1.68014432 C13.8867467,1.6880059 13.8684372,1.69874223 13.8594305,1.71176664 C13.8377435,1.71713481 13.8190487,1.72068425 13.8072868,1.7318606 C12.3823992,2.54415533 10.5601822,4.18288389 9.09283899,6.43980244 C7.83567069,8.3591131 7.45042903,10.1506438 8.11766178,10.6927407 C8.78708694,11.2413499 11.0003229,10.0685372 12.138005,9.41966359 C13.2813458,8.76999795 16.8062048,6.79424819 16.8062048,6.79424819 C16.8062048,6.79424819 20.3039846,4.76839552 21.4478883,4.12122329 C22.5911995,3.46985627 24.7276124,2.17187436 24.5839208,1.32041841 C24.4431919,0.477968073 22.6854138,-0.0901483531 20.3777561,0.011817501" id="Fill-16"></path>
                <path d="M46.0204316,6.43702041 C44.5496036,4.18034072 42.7262508,2.54412031 41.2998586,1.72766784 C41.2874166,1.71692929 41.2720121,1.71692929 41.2539415,1.70575063 C41.2388333,1.69853292 41.2326123,1.68779437 41.2145417,1.67993117 C39.7875571,0.86699953 37.4398608,0.140328366 34.73253,0.0112603946 C32.4206786,-0.0882325563 30.6663496,0.481614714 30.525636,1.32368127 C30.3843298,2.17325894 32.5214,3.47353293 33.6654761,4.12151342 C34.8030349,4.77233991 38.3036945,6.79508941 38.3036945,6.79508941 C38.3036945,6.79508941 41.8348668,8.7712465 42.9750918,9.41934435 C44.1150205,10.0672075 46.3288167,11.2431079 46.9918002,10.6917744 C47.661301,10.1490962 47.2699689,8.36027695 46.0204316,6.43702041" id="Fill-17"></path>
                <path d="M41.2797232,38.9585635 C42.9910399,37.9385228 44.2605344,36.6414845 44.8931976,35.6249501 C44.8994498,35.6191062 44.9062974,35.6015747 44.908977,35.5893027 C44.917611,35.5793682 44.9307108,35.5738165 44.9360698,35.5618367 C45.5693285,34.5397506 46.1623944,32.8444552 46.3032177,30.8882327 C46.4300481,29.2087741 46.0456866,27.9271342 45.4127257,27.8053196 C44.7836352,27.6818978 43.7689923,29.2122804 43.2557164,30.0297739 C42.7528608,30.8455727 41.16897,33.3467325 41.16897,33.3467325 C41.16897,33.3467325 39.6214014,35.8700988 39.11408,36.6847288 C38.6079494,37.5014042 37.6856009,39.0850825 38.0791919,39.580055 C38.4742714,40.0843776 39.8211741,39.8298788 41.2797232,38.9585635" id="Fill-19"></path>
                <path d="M22.7421284,44.1866681 C24.5068124,45.1130587 26.2759362,45.5192977 27.4891934,45.5275823 L27.5229361,45.525807 C27.5356636,45.525807 27.550759,45.5275823 27.550759,45.5275823 C28.7758558,45.540305 30.5476435,45.1680918 32.3289028,44.2641879 C33.8440684,43.5011214 34.7634089,42.4957316 34.5502971,41.898652 C34.3294896,41.2997972 32.4845928,41.2287867 31.5155261,41.2276032 C30.5476435,41.2145846 27.5631905,41.1684278 27.5631905,41.1684278 C27.5631905,41.1684278 24.5772577,41.1619185 23.6058231,41.1503793 C22.6376445,41.1471247 20.7930436,41.1864763 20.5642444,41.7811889 C20.3348533,42.3711675 21.2420583,43.3946057 22.7421284,44.1866681" id="Fill-20"></path>
                <path d="M8.90226308,30.7680271 C8.99409508,32.744012 9.53586275,34.4632306 10.1395862,35.5067481 C10.1451678,35.5161491 10.1548915,35.5246688 10.1640571,35.5311321 C10.1664366,35.5431772 10.1762779,35.5561036 10.1762779,35.5666798 C10.7819695,36.6131351 11.9981119,37.9386844 13.6622218,39.0098174 C15.0839727,39.9170196 16.3996732,40.1961135 16.8024296,39.7104901 C17.2057736,39.2251604 16.3359254,37.61141 15.8570829,36.7753034 C15.3683992,35.9441911 13.9077534,33.3721203 13.9077534,33.3721203 C13.9077534,33.3721203 12.4106215,30.8185578 11.928577,29.9868579 C11.4522315,29.1484598 10.4819732,27.589823 9.85765665,27.6937929 C9.23906854,27.7942079 8.821183,29.0823292 8.90226308,30.7680271" id="Fill-21"></path>
                <path d="M13.7717362,11.9602763 C12.1028338,13.0040776 10.8663494,14.3091886 10.2498066,15.340168 C10.2466128,15.3515816 10.2408113,15.3626724 10.2377348,15.37168 C10.2317868,15.3865559 10.2195977,15.3931576 10.2195977,15.4020772 C9.59962675,16.4386606 9.03134202,18.1426314 8.91021342,20.1130172 C8.80083436,21.7968895 9.20064076,23.0869193 9.82034802,23.1954512 C10.4405241,23.3121691 11.4254923,21.7697198 11.9189727,20.9436278 C12.4116033,20.1232865 13.9383979,17.5884411 13.9383979,17.5884411 C13.9383979,17.5884411 15.4383825,15.0444414 15.9340018,14.2180266 C16.4270133,13.3928734 17.3127698,11.7937375 16.916919,11.299608 C16.5269283,10.8060653 15.2087538,11.0698104 13.7717362,11.9602763" id="Fill-22"></path>
                <path d="M32.3375242,6.75357515 C30.559352,5.84905059 28.7873951,5.46362386 27.5712649,5.47319508 C27.5626819,5.47319508 27.5466996,5.47849926 27.5466996,5.47849926 C27.5194706,5.47609904 27.5099997,5.46952068 27.497865,5.47319508 C26.2849905,5.47849926 24.5159933,5.88203129 22.746996,6.80836519 C21.2420017,7.60052424 20.3348616,8.6129102 20.5642363,9.21266703 C20.7930191,9.80525285 22.6342324,9.85254592 23.6124047,9.8496716 C24.5769626,9.84181905 27.5626819,9.8358037 27.5626819,9.8358037 C27.5626819,9.8358037 30.540706,9.80525285 31.5147348,9.79799294 C32.4837321,9.79094047 34.328497,9.72554208 34.5492887,9.1263779 C34.7659369,8.53020658 33.8493258,7.52795485 32.3375242,6.75357515" id="Fill-23"></path>
                <path d="M46.1991729,20.1120223 C46.0769183,18.1403128 45.4976927,16.4317347 44.876034,15.402103 C44.8706928,15.3896582 44.8611973,15.3814106 44.8546692,15.3695235 C44.8490312,15.3635946 44.8430965,15.3505628 44.8395357,15.3398203 C44.214613,14.3119203 42.9626905,13.0002846 41.265963,11.9584429 C39.8173055,11.0649116 38.4825941,10.8075918 38.0808157,11.3013043 C37.6870491,11.7956038 38.5900119,13.3952898 39.0828878,14.2182321 C39.5873364,15.0421722 41.1072101,17.5891018 41.1072101,17.5891018 C41.1072101,17.5891018 42.6567573,20.120945 43.1555678,20.9421262 C43.6514111,21.7692949 44.6522963,23.3115999 45.2775157,23.1955168 C45.910747,23.0866248 46.3098548,21.7964739 46.1991729,20.1120223" id="Fill-24"></path>
            </g>
            <path d="M81.6697903,11 C82.9906457,11 84.2521107,11.141673 85.4639291,11.4261948 C86.6707597,11.7142437 87.740772,12.1733584 88.6657884,12.819411 C89.5951546,13.45547 90.3307483,14.2866968 90.881443,15.3160308 C91.4319057,16.3436012 91.7035702,17.5939686 91.7035702,19.0788901 C91.7035702,20.5032626 91.3468221,21.7700899 90.630368,22.8805479 C89.9117099,23.9910058 88.9480666,24.8339898 87.740772,25.3995062 C89.1474071,25.9467991 90.2079657,26.7974252 90.9218679,27.9684322 C91.6423819,29.1329728 92,30.4156722 92,31.8112398 C92,33.4348951 91.6963204,34.8281112 91.0955151,35.9820704 C90.4886199,37.1348539 89.6886481,38.0901182 88.6872478,38.8419846 C87.6924594,39.5973782 86.5407273,40.1458468 85.2333855,40.4862148 C83.9233758,40.8295221 82.5535118,41 81.1197915,41 C80.1353268,41 79.1655937,40.9365117 78.2100702,40.8083593 C77.2538507,40.6802069 76.3342282,40.4862148 75.4505067,40.2316736 C74.5635952,39.9741932 73.740598,39.6596908 72.9819791,39.2905179 C72.225564,38.921345 71.5599745,38.4927988 71,38.0107577 L73.994399,33.6923755 C74.4163953,34.0345071 74.9076997,34.3431309 75.4712701,34.6088413 C76.0325785,34.8851331 76.6250321,35.1067545 77.2402791,35.2760567 C77.8598759,35.448886 78.4719909,35.5823291 79.0768562,35.6781494 C79.6808514,35.7821998 80.2193665,35.8315796 80.7009271,35.8315796 C82.4957454,35.8315796 83.8675814,35.4541767 84.8109252,34.6999589 C85.7497452,33.9439774 86.2245781,32.9381577 86.2245781,31.684851 C86.2245781,30.4021515 85.7838483,29.4421845 84.9161923,28.7990712 C84.0439545,28.1559579 82.8912944,27.8361648 81.4557762,27.8361648 L77.5776557,27.8361648 L77.5776557,23.2191523 L81.2920468,23.2191523 C81.9091497,23.2191523 82.4887276,23.1380283 83.0396543,22.9628476 C83.5898851,22.7923696 84.0701698,22.5466463 84.493732,22.235671 C84.9161923,21.9182294 85.253743,21.5190759 85.504586,21.0317442 C85.759257,20.5444124 85.8877234,20.0006466 85.8877234,19.3951561 C85.8877234,18.7643877 85.7425534,18.236494 85.4639291,17.8067721 C85.1825789,17.3723473 84.8177111,17.0278643 84.3656716,16.7539239 C83.916126,16.4835107 83.4033622,16.2859914 82.8290042,16.1719476 C82.2502962,16.0579037 81.6576106,15.9997061 81.0369118,15.9997061 C80.0811563,15.9997061 79.0244836,16.1778261 77.8727515,16.534654 C76.7205555,16.891482 75.7377147,17.42643 74.9223733,18.1383223 L72.0986636,13.9651402 C73.3059581,13.0075245 74.7211769,12.272118 76.3565575,11.7630357 C77.9822525,11.2568926 79.7578153,11 81.6697903,11" id="Fill-26"></path>
            <path d="M107.819853,16.1006591 L107.477177,23.0596889 C107.422784,24.2986027 107.351254,25.4696546 107.269079,26.5780649 C107.181641,27.6870551 107.054841,28.745004 106.884058,29.7420511 C106.71351,30.7402584 106.474882,31.681624 106.161156,32.5673082 C105.850122,33.4558924 105.424569,34.2644345 104.885609,34.9929344 L116.664229,34.9929344 L116.664229,16.1006591 L107.819853,16.1006591 Z M98.168062,34.9500132 C98.8179132,34.4726602 99.3702663,33.9059847 99.8261155,33.2447667 C100.280327,32.5835486 100.653534,31.7767466 100.953632,30.8179805 C101.249635,29.8626944 101.482298,28.745004 101.656765,27.463749 C101.824097,26.1848141 101.951599,24.675613 102.037867,22.9332455 L102.589811,11 L122.405215,11 C122.405215,15.0177696 122.412526,19.0169786 122.426388,22.9947271 C122.441185,26.9724756 122.446858,30.9687846 122.446858,34.9929344 L125,34.9929344 L125,44 L119.683397,44 L119.683397,40.0495123 L101.317949,40.0495123 L101.317949,44 L96,44 L96,34.9500132 L98.168062,34.9500132 Z" id="Fill-28"></path>
            <path d="M147.040447,21.7089603 C147.040447,20.7420895 146.881414,19.9255034 146.565142,19.2533315 C146.242293,18.5876172 145.824383,18.0410739 145.301846,17.6119406 C144.776917,17.1833943 144.192202,16.8740191 143.544112,16.6697258 C142.887653,16.4759995 142.217442,16.3773751 141.519132,16.3773751 C140.825006,16.3773751 140.143436,16.4759995 139.475617,16.6697258 C138.811385,16.8740191 138.214713,17.1833943 137.692774,17.6119406 C137.176813,18.0410739 136.751729,18.5876172 136.431271,19.2533315 C136.116194,19.9255034 135.957161,20.7420895 135.957161,21.7089603 L135.957161,30.2881044 C135.957161,31.252627 136.116194,32.0821283 136.431271,32.7625188 C136.751729,33.4452576 137.176813,34.0029548 137.692774,34.4285658 C138.214713,34.855351 138.811385,35.1641391 139.475617,35.3467115 C140.143436,35.5316322 140.825006,35.6255601 141.519132,35.6255601 C142.217442,35.6255601 142.887653,35.5316322 143.544112,35.3467115 C144.192202,35.1641391 144.776917,34.855351 145.301846,34.4285658 C145.824383,34.0029548 146.242293,33.4452576 146.565142,32.7625188 C146.881414,32.0821283 147.040447,31.252627 147.040447,30.2881044 L147.040447,21.7089603 Z M153,31.3125061 C153,32.9081072 152.693891,34.3017631 152.087653,35.4975833 C151.477827,36.6904683 150.652171,37.7007808 149.610086,38.5249985 C148.572784,39.3503904 147.349545,39.9673796 145.944554,40.3830108 C144.542553,40.7957067 143.061035,41 141.498206,41 C139.93478,41 138.452067,40.7957067 137.048271,40.3830108 C135.648063,39.9673796 134.425422,39.3503904 133.385131,38.5249985 C132.343644,37.7007808 131.51739,36.6904683 130.913543,35.4975833 C130.303119,34.3017631 130,32.9081072 130,31.3125061 L130,20.5149013 C130,18.9527621 130.318066,17.5708471 130.957785,16.3773751 C131.592722,15.1797937 132.44588,14.1853316 133.51726,13.3904663 C134.583858,12.5920787 135.814869,11.9944622 137.203717,11.5970295 C138.594359,11.1960746 140.022667,11 141.498206,11 C142.97255,11 144.405043,11.2154472 145.792098,11.638123 C147.183338,12.0625599 148.407772,12.6818973 149.47975,13.4932 C150.551729,14.308025 151.406681,15.3159893 152.041617,16.5270728 C152.678347,17.7328728 153,19.1224194 153,20.6845586 L153,31.3125061 Z" id="Fill-29"></path>
            <path d="M163.965635,23.925625 L170.069058,23.925625 C171.434959,23.925625 172.464178,23.5567846 173.161506,22.8231571 C173.858236,22.0889506 174.205702,21.1694553 174.205702,20.0710407 C174.205702,18.9419375 173.849849,18.0120198 173.138741,17.2760762 C172.428233,16.5407116 171.400811,16.1776615 170.069058,16.1776615 L163.965635,16.1776615 L163.965635,23.925625 Z M171.418185,11 C172.901506,11 174.176946,11.2750379 175.248101,11.8216396 C176.325246,12.3653462 177.216676,13.0775497 177.927185,13.9449325 C178.638292,14.8140524 179.165482,15.7926084 179.49857,16.8719152 C179.832857,17.9535381 180,19.0114208 180,20.0484586 C180,21.1150268 179.803502,22.1844901 179.412303,23.246426 C179.020505,24.3158893 178.454375,25.2834438 177.71571,26.1531427 C176.974648,27.0245787 176.059853,27.732729 174.96833,28.2787517 C173.879803,28.8288276 172.636713,29.0980752 171.245051,29.0980752 L163.965635,29.0980752 L163.965635,40 L158,40 L158,11 L171.418185,11 Z" id="Fill-30"></path>
            <path d="M200.044589,21.7089603 C200.044589,20.7420895 199.885523,19.9255034 199.565597,19.2533315 C199.245671,18.5876172 198.828272,18.0410739 198.305626,17.6119406 C197.784775,17.1833943 197.196948,16.8740191 196.543341,16.6697258 C195.889735,16.4759995 195.216395,16.3773751 194.52392,16.3773751 C193.827258,16.3773751 193.146742,16.4759995 192.480578,16.6697258 C191.813816,16.8740191 191.215823,17.1833943 190.694972,17.6119406 C190.175316,18.0410739 189.756721,18.5876172 189.436197,19.2533315 C189.118663,19.9255034 188.959596,20.7420895 188.959596,21.7089603 L188.959596,30.2881044 C188.959596,31.252627 189.118663,32.0821283 189.436197,32.7625188 C189.756721,33.4452576 190.175316,34.0029548 190.694972,34.4285658 C191.215823,34.855351 191.813816,35.1641391 192.480578,35.3467115 C193.146742,35.5316322 193.827258,35.6255601 194.52392,35.6255601 C195.216395,35.6255601 195.889735,35.5316322 196.543341,35.3467115 C197.196948,35.1641391 197.784775,34.855351 198.305626,34.4285658 C198.828272,34.0029548 199.245671,33.4452576 199.565597,32.7625188 C199.885523,32.0821283 200.044589,31.252627 200.044589,30.2881044 L200.044589,21.7089603 Z M206,31.3125061 C206,32.9081072 205.692632,34.3017631 205.090453,35.4975833 C204.482294,36.6904683 203.658858,37.7007808 202.614165,38.5249985 C201.573059,39.3503904 200.352556,39.9673796 198.947871,40.3830108 C197.546175,40.7957067 196.061957,41 194.500598,41 C192.940435,41 191.458011,40.7957067 190.052129,40.3830108 C188.650434,39.9673796 187.426343,39.3503904 186.385835,38.5249985 C185.34473,37.7007808 184.518902,36.6904683 183.911939,35.4975833 C183.30677,34.3017631 183,32.9081072 183,31.3125061 L183,20.5149013 C183,18.9527621 183.319328,17.5708471 183.953799,16.3773751 C184.594249,15.1797937 185.445791,14.1853316 186.513208,13.3904663 C187.585409,12.5920787 188.817274,11.9944622 190.203422,11.5970295 C191.591363,11.1960746 193.024154,11 194.500598,11 C195.975846,11 197.409833,11.2154472 198.79897,11.638123 C200.186912,12.0625599 201.418777,12.6818973 202.48739,13.4932 C203.556003,14.308025 204.409937,15.3159893 205.048593,16.5270728 C205.679476,17.7328728 206,19.1224194 206,20.6845586 L206,31.3125061 Z" id="Fill-31"></path>
            <path d="M227.891433,31.1860474 C227.891433,30.0679459 227.536641,29.1675585 226.834594,28.4831483 C226.132546,27.7998962 225.164985,27.4605862 223.926691,27.4605862 L217.772906,27.4605862 L217.772906,34.8287078 L223.967272,34.8287078 C225.262378,34.8287078 226.238056,34.4998203 226.899523,33.8426244 C227.557511,33.1842704 227.891433,32.3047281 227.891433,31.1860474 Z M227.550555,19.4607459 C227.550555,18.3912826 227.233445,17.5783284 226.605602,17.01783 C225.971383,16.4550156 224.982951,16.1776615 223.629872,16.1776615 L217.772906,16.1776615 L217.772906,22.5324854 L223.716251,22.5324854 C224.92208,22.5324854 225.867032,22.2493411 226.538934,21.6923169 C227.214894,21.1289234 227.550555,20.3860315 227.550555,19.4607459 Z M234,31.3852328 C234,32.5629742 233.817386,33.6706533 233.454478,34.7071121 C233.089831,35.7429918 232.553005,36.6514855 231.851538,37.4406996 C231.15007,38.2247025 230.282221,38.8465777 229.239875,39.3080625 C228.199267,39.7736004 226.988801,40 225.616011,40 L212,40 L212,11 L225.06817,11 C226.52676,11 227.784764,11.2096079 228.835806,11.6299816 C229.892645,12.0532505 230.762234,12.6270665 231.452687,13.3572199 C232.139661,14.0931635 232.653878,14.9362271 232.990118,15.8922011 C233.328098,16.846438 233.495059,17.8441019 233.495059,18.8851929 C233.495059,19.951761 233.209834,21.0501757 232.630689,22.1717515 C232.053862,23.2968014 231.15007,24.1711325 229.911776,24.7901126 C230.616143,25.1271065 231.220796,25.5526915 231.725157,26.0691838 C232.232997,26.5897293 232.653878,27.1508066 232.990118,27.7477837 C233.328098,28.3540252 233.580859,28.9712683 233.745501,29.6018289 C233.918259,30.2294944 234,30.8270506 234,31.3852328 Z" id="Fill-32"></path>
            <path d="M243.483294,14.5777354 C243.483294,14.3574577 243.415274,14.1798145 243.279833,14.0442134 C243.144988,13.9103888 242.960024,13.8422923 242.726134,13.8422923 L241.646181,13.8422923 L241.646181,15.3054806 L242.726134,15.3054806 C242.960024,15.3054806 243.144988,15.2385683 243.279833,15.1065202 C243.415274,14.9732877 243.483294,14.7968287 243.483294,14.5777354 Z M242.900358,13.1411935 C243.138425,13.1411935 243.341885,13.18442 243.511337,13.2702809 C243.680788,13.3561419 243.819212,13.4692414 243.928998,13.607211 C244.039379,13.7457727 244.119928,13.9003224 244.172434,14.0702678 C244.225537,14.2408053 244.251193,14.4095664 244.251193,14.5777354 C244.251193,14.7044542 244.23389,14.8323574 244.196897,14.9614448 C244.161098,15.0917166 244.107399,15.2131061 244.039379,15.3291664 C243.970764,15.4440424 243.887232,15.549444 243.788783,15.6418185 C243.690334,15.7353773 243.576969,15.8111718 243.448687,15.8697941 L244.313246,17.8297914 L243.462411,17.8297914 L242.685561,16.0059872 L241.646181,16.0059872 L241.646181,17.8297914 L240.864558,17.8297914 L240.864558,13.1411935 L242.900358,13.1411935 Z M242.499403,11 C240.044749,11 238,12.9771696 238,15.5115468 C238,18.0400026 240.044749,20 242.499403,20 C244.949284,20 247,18.0400026 247,15.5115468 C247,12.9771696 244.949284,11 242.499403,11 Z" id="Fill-33"></path>
        </g>
    </g>
</svg>