<?xml version="1.0" encoding="UTF-8"?>
<svg width="81px" height="53px" viewBox="0 0 81 53" version="1.1" xmlns="http://www.w3.org/2000/svg" xmlns:xlink="http://www.w3.org/1999/xlink">
    <!-- Generator: Sketch 48.2 (47327) - http://www.bohemiancoding.com/sketch -->
    <title>noun_89670 copy</title>
    <desc>Created with Sketch.</desc>
    <defs></defs>
    <g id="4" stroke="none" stroke-width="1" fill="none" fill-rule="evenodd" transform="translate(-1255.000000, -741.000000)">
        <g id="noun_89670-copy" transform="translate(1255.000000, 741.000000)" fill-rule="nonzero" stroke="#F3AB00" stroke-width="2">
            <path d="M4.09640106,46.8923874 L4.8790211,51.9681587 C23.6345678,49.6656599 35.9968915,34.7403421 33.6751755,16.9359604 C31.7015731,5.63066186 23.4643297,-0.203016791 14.034643,1.19066974 C5.65086813,2.60700548 -0.0946199743,10.7693939 1.1762679,19.5372415 L1.17654698,19.5391802 C2.25634721,27.0929047 8.38729013,32.7168549 15.6279622,33.0772687 L16.85243,33.1382182 L16.5466423,34.3254545 C14.7805555,41.1823759 10.7996908,44.8008896 4.09640106,46.8923874 Z M50.1431857,46.6465445 C50.142946,46.6446254 50.1427011,46.6429329 50.1423135,46.6402535 L50.1431857,46.6465445 Z M50.1772764,46.8924331 L50.8808875,51.9674304 C69.6380909,49.6723357 81.9180791,34.8130922 79.7612641,16.9426238 C77.7114556,5.65240553 69.3891953,-0.206812805 60.0295355,1.19066974 C51.6325404,2.60923888 45.9072521,10.7800703 47.2616731,19.5407566 C48.3468932,27.219656 54.4140576,32.807911 61.7000175,33.076712 L62.9268243,33.1219726 L62.6343571,34.3142672 C60.9642213,41.1228733 56.9226244,44.7562465 50.1772764,46.8924331 Z" id="Shape-Copy"></path>
        </g>
    </g>
</svg>