<?xml version="1.0" encoding="UTF-8"?>
<svg width="54px" height="49px" viewBox="0 0 54 49" version="1.1" xmlns="http://www.w3.org/2000/svg" xmlns:xlink="http://www.w3.org/1999/xlink">
    <!-- Generator: Sketch 48.2 (47327) - http://www.bohemiancoding.com/sketch -->
    <title>Group 9</title>
    <desc>Created with Sketch.</desc>
    <defs></defs>
    <g id="6" stroke="none" stroke-width="1" fill="none" fill-rule="evenodd" transform="translate(-251.000000, -306.000000)" opacity="0.699999988">
        <g id="Group-9" transform="translate(251.000000, 306.000000)" fill="#E5E5E5">
            <path d="M21.0631075,31.8362246 L41.6591211,46.9140208 C42.5503866,47.5664927 43.8018331,47.3729122 44.4543049,46.4816467 C44.6280793,46.2442738 44.7473484,45.9714883 44.8036099,45.6827357 L53.0880223,3.16441292 C53.2992678,2.08023161 52.5916135,1.03008068 51.5074322,0.818835161 C51.1515266,0.749489305 50.783464,0.778204285 50.4426194,0.901908216 L1.69784756,18.5930199 C0.659546235,18.9698542 0.123321307,20.1170484 0.500155663,21.1553497 C0.681484894,21.6549708 1.05423023,22.0618651 1.53608353,22.2861838 L14.675183,28.4028712 L35.7340301,14.9330833 C36.1992827,14.6354956 36.817687,14.7714149 37.1152747,15.2366675 C37.3719349,15.6379336 37.3099415,16.1645368 36.9671129,16.4952292 L21.0631075,31.8362246 Z" id="Path-5"></path>
            <path d="M11,25.9424433 L16.7503474,47.4520724 C16.8929851,47.9856199 17.4411415,48.3025149 17.974689,48.1598773 C18.131503,48.1179549 18.2757548,48.0384894 18.3949861,47.928344 L32,35.3600803 L21.0473505,31.8673769 L19.3550239,40.2382848 C19.2455839,40.7796177 18.7180282,41.1297361 18.1766953,41.0202961 C17.7717423,40.9384277 17.4588253,40.6159568 17.3891692,40.2087255 L15.2073221,27.4529612 L11,25.9424433 Z" id="Path-8"></path>
        </g>
    </g>
</svg>