<?xml version="1.0" encoding="UTF-8"?>
<svg width="34px" height="20px" viewBox="0 0 34 20" version="1.1" xmlns="http://www.w3.org/2000/svg" xmlns:xlink="http://www.w3.org/1999/xlink">
    <!-- Generator: Sketch 48.2 (47327) - http://www.bohemiancoding.com/sketch -->
    <title>vk (1) copy</title>
    <desc>Created with Sketch.</desc>
    <defs></defs>
    <g id="6" stroke="none" stroke-width="1" fill="none" fill-rule="evenodd" transform="translate(-781.000000, -699.000000)">
        <g id="vk-(1)-copy" transform="translate(781.000000, 699.000000)" fill="#EDEEEF" fill-rule="nonzero">
            <path d="M28.6880831,12.7169112 C29.7937913,13.8614773 30.9608305,14.9383472 31.952529,16.1983337 C32.3906068,16.7582503 32.8053569,17.336049 33.1226347,17.9858402 C33.572212,18.9095516 33.1650188,19.9260406 32.3838166,19.9811962 L27.5277246,19.9788739 C26.2752603,20.089069 25.2761144,19.5544659 24.4359908,18.6465464 C23.7636509,17.9204663 23.1410329,17.147707 22.4945397,16.3971262 C22.2295026,16.0903448 21.9520899,15.8016778 21.6206841,15.5735077 C20.9577629,15.1172836 20.3823477,15.2569725 20.00352,15.9900197 C19.617683,16.7356075 19.530177,17.5612 19.4922833,18.3921339 C19.4402615,19.6045124 19.0946182,19.9232538 17.9459783,19.9787578 C15.4912095,20.1014935 13.161512,19.7077405 10.9972983,18.3948046 C9.08925065,17.2373494 7.60964301,15.6033498 6.32180391,13.7534885 C3.81435632,10.1514203 1.89415197,6.19333711 0.168344626,2.12436212 C-0.220120829,1.20761771 0.0639725994,0.715513494 1.01799644,0.698095931 C2.60219515,0.66546703 4.18617482,0.667789371 5.77223535,0.695773589 C6.41610014,0.705759659 6.84234981,1.09730648 7.09095894,1.74222078 C7.94805808,3.9766619 8.99681624,6.10253354 10.3132399,8.07304052 C10.6638116,8.59765752 11.0212831,9.12227453 11.5303295,9.49152686 C12.0934784,9.90037513 12.522247,9.76486649 12.7871746,9.09974781 C12.9552869,8.67801055 13.028884,8.2237605 13.0667777,7.77206503 C13.192287,6.21807005 13.2088244,4.66674575 12.9886903,3.11820827 C12.8535433,2.15176575 12.3401162,1.52612688 11.4305572,1.34324247 C10.9664139,1.25000045 11.0355206,1.0668838 11.2602545,0.785996567 C11.6505818,0.301556077 12.017691,0 12.7494999,0 L18.2376285,0 C19.1016274,0.180794306 19.2935055,0.592313264 19.4117865,1.51405071 L19.4164958,7.97747616 C19.4070771,8.33430397 19.5846081,9.39317569 20.1907982,9.62935785 C20.6759694,9.79749539 20.9957661,9.38597643 21.2868688,9.05980353 C22.600883,7.58116854 23.538698,5.83372249 24.3765217,4.02426991 C24.7483402,3.22863562 25.0680275,2.40234643 25.377858,1.57675393 C25.6074107,0.964120179 25.9676202,0.662680219 26.6184942,0.676033685 L31.9005073,0.681026719 C32.0571201,0.681026719 32.2155947,0.683465178 32.3672791,0.710984928 C33.2573436,0.871807094 33.5012434,1.27775243 33.2263496,2.19925764 C32.7932003,3.6450315 31.9504482,4.8498624 31.1264239,6.06026692 C30.245559,7.35253399 29.3034728,8.60056045 28.4299457,9.90049125 C27.6273873,11.0875562 27.6911276,11.6859076 28.6880831,12.7169112 Z" id="XMLID_807_"></path>
        </g>
    </g>
</svg>